<svg xmlns="http://www.w3.org/2000/svg" xmlns:xlink="http://www.w3.org/1999/xlink" width="48" height="49" viewBox="0 0 48 49">
    <defs>
        <path id="a" d="M0 0h33v35H0z"/>
    </defs>
    <g fill="none" fill-rule="evenodd">
        <circle cx="24" cy="25" r="20" stroke="#FFF" stroke-width="4"/>
        <g transform="translate(15)">
            <mask id="b" fill="#fff">
                <use xlink:href="#a"/>
            </mask>
            <path fill="#FEFEFE" d="M32.667 0c-1.864.126-3.407.376-4.623.743-1.216.366-2.212.868-2.988 1.503-.886.733-1.876 1.805-2.976 3.217-1.096 1.41-2.697 3.703-4.8 6.873a393.927 393.927 0 0 0-5.38 8.39c-2.181 3.49-3.43 5.237-3.745 5.237-.364 0-.816-.767-1.354-2.295a37.34 37.34 0 0 0-.593-1.627c-.269-.653-.504-1.078-.709-1.278-.207-.2-.473-.3-.806-.3-1.027 0-2.069.38-3.116 1.138C.522 22.356 0 23.19 0 24.096c0 .447.244 1.556.733 3.325.03.145.064.262.095.357.428 1.596.797 2.804 1.115 3.623.315.82.654 1.485 1.018 1.997.443.588.925 1.004 1.448 1.242.52.24 1.185.36 1.992.36 1.894 0 3.358-1.035 4.384-3.109.333-.684.608-1.22.831-1.602 3-5.179 6.294-10.232 9.872-15.155C25.068 10.207 28.906 5.444 33 .838L32.667 0z" mask="url(#b)"/>
        </g>
    </g>
</svg>
