<svg xmlns="http://www.w3.org/2000/svg" width="61" height="71" viewBox="0 0 61 71">
    <g fill="#FFF" fill-rule="nonzero">
        <path d="M41.41 9.673c0-.92-.757-1.673-1.684-1.673h-3.03l-2.443.753c-3.368-.084-11.536-.251-17.43 1.924-7.41 2.678-7.494 2.761-9.431 5.606-.926 1.422-1.516 3.095-1.516 4.852 0 .92.085 1.841.337 2.761-.42 2.008-.673 4.1-.926 6.108-.926.67-1.6 1.59-1.853 2.677-.336 1.757-.505 3.514-.673 5.355L.74 56.693c-.926 9.036-.842 9.12-.505 9.454.084.084.252.251 1.01.419l.084 2.426c0 .251.085.418.253.586l.505.502c.084.083.169.167.337.167.337.084.758.167 1.095.251 1.684.335 3.368.502 5.052.502h.253c4.21 0 6.23-1.004 6.315-1.088.084-.083.168-.083.252-.167l.506-.586c.168-.167.168-.334.168-.585v-2.761c0-.084 0-.251-.084-.335l1.01.251c.169 0 .337.084.506.084 1.178-.084 2.273-.502 3.2-1.088.336-.25 1.347-.92 3.2-14.641 1.346-10.208 1.515-13.805 1.599-13.889 0-.25-.084-.418-.168-.585l-1.348-1.506-.084-.084-1.6-1.339v-.836c4.968.167 5.642 1.087 7.158 4.183l.084.084c.084.167.252.25.42.334.17.084.17.084 4.38.67l2.694.753 2.947-.084c.926 0 1.684-.753 1.684-1.673 0-.084.337-6.443.337-13.052 0-6.61-.59-13.387-.59-13.387zm-23.998 2.594c6.316-2.343 16-1.84 17.852-1.757.084 1.088.168 2.845.252 5.187-2.694-.167-16.335-.836-18.777-.753-2.358.084-4.716.419-7.073 1.088 1.094-1.339 2.273-1.757 7.746-3.765zm-9.936 9.036c.084-1.423.505-2.845 1.263-4.016l.085-.084c2.61-.836 5.22-1.338 7.915-1.422 2.357-.084 16.335.67 18.777.753.084 1.84.084 4.016.084 6.442v3.514c-2.02.167-11.872.837-14.398.753-1.348 0-8.084-.167-12.463-1.422a10.236 10.236 0 0 1-1.01-2.176 10.519 10.519 0 0 1-.253-2.342zm13.22 12.215l.842.67c-2.863.25-8.757.836-9.767 1.003h-.337c-1.263 0-2.442.502-3.284 1.506l.59-5.438c2.104.251 4.546.335 6.483.335h.758c.842.083 1.852.083 3.2.083h1.263v1.172c0 .334.084.502.252.669zM13.54 64.223l.59.167c0 .084-.085.168-.085.251 0 .168-.084.419-.084.502-.59.251-1.179.419-1.853.419-2.357.167-4.715.25-7.073.167l.758-7.195H6.213c.674 0 1.179-.502 1.263-1.171l.169-2.678c.084-.753-.506-1.338-1.18-1.422h-.168L7.73 40.21c.42-3.765 2.358-4.016 3.705-4.1h.337c.926-.167 6.568-.669 9.515-1.003-.253.167-.59.418-.842.585-.59.586-2.526 4.853-2.695 5.773-2.442 9.705-5.389 21.335-5.389 21.753.253.67 1.01.92 1.179 1.004zM6.55 54.1c.253 0 .421.25.421.502l-.253 2.677c0 .084-.084.25-.168.335-.084.083-.253.083-.337.083l-1.263-.083c-.084 0-.253-.084-.337-.168-.084-.083-.084-.25-.084-.334l.168-2.761c0-.251.253-.419.506-.419l1.347.168zm.337-23.845c.084-1.171.252-2.343.42-3.514a8.432 8.432 0 0 0 2.948 2.761c1.01.586 1.768 1.004 2.526 1.339-2.02-.168-4.126-.419-5.894-.586zM2.424 56.861l1.937-18.574s.336-3.681.673-5.104c.253-.836.842-1.506 1.516-1.924.084-.084.168-.084.253-.167l1.178.167-1.094 8.868c-.505 4.435-1.263 11.714-1.263 12.048L5.54 53.18h-.253c-.674-.083-1.347.502-1.432 1.172l-.168 2.677c-.084.753.505 1.339 1.179 1.422h.084l-.758 7.112-1.684-.335c-.084-.084-.168-.084-.252-.167l-.59-.168c.084-1.338.421-5.438.758-8.031zm11.873 11.462l-.169.25c-1.768.586-3.62.921-5.389.837-1.684 0-3.368-.083-4.968-.418-.337-.084-.59-.167-.673-.167l-.085-.084-.084-2.426 1.095.167c.926.084 1.852.167 2.779.167 2.02 0 4.462-.167 5.389-.167.673 0 1.347-.167 2.02-.418l.169.25-.084 2.009zm7.747-18.49c-1.432 11.043-2.358 13.219-2.527 13.553-.673.419-1.515.67-2.357.753l-1.937-.418h-.337l-1.179-.25c-.168-.085-.252-.168-.42-.252.084-.67 3.2-13.219 5.304-21.502.674-1.84 1.516-3.681 2.526-5.354.506-.419 1.01-.753 1.6-1.088l.926 1.088c-.084 1.087-.505 5.02-1.6 13.47zm.084-19.829H20.023c-4.968 0-5.221 0-8.926-2.092-.505-.25-.926-.585-1.347-1.004 3.789.753 7.662 1.088 11.452 1.172h.168c2.779 0 11.957-.586 14.23-.753 0 3.765-.084 6.61-.168 8.115l-4.8-.585c-1.852-3.598-3.2-4.686-8.504-4.853zm17.767 5.94l-2.863.084-.842-.251c.084-1.84.168-6.61.168-12.885 0-6.274-.168-11.127-.337-12.968l.758-.25 2.947.083c0 .084.59 6.61.59 13.135 0 6.526-.421 12.969-.421 13.052zM61 22.268c0-6.863-5.272-12.472-11.944-12.806 0-.67-.164-1.423-.411-2.01-.165-.418-.66-.585-1.071-.334-.412.167-.66.67-.494 1.088 0 .084.74 2.093.74 13.895s-.74 13.727-.74 13.727c-.165.419-.083.92.329 1.088.082.084.247.084.33.084.494-.084.823-.419.988-.837 0-.084.165-.837.165-.837C55.646 35.242 61 29.048 61 22.268zM49.056 34.573c.248-2.01.412-6.11.412-12.221v-.167-.168c0-5.86-.164-9.375-.412-11.467 6.178.25 11.12 5.44 11.12 11.718s-4.942 12.053-11.12 12.305zM43.5 5c-.2 0-.5-.167-.5-.417V.417c0-.25.3-.417.5-.417s.5.167.5.417v4.166c0 .25-.2.417-.5.417zM46.423 5C46.169 5 46 4.826 46 4.565c0-.087.085-.26.085-.26l2.112-2.175a.503.503 0 0 1 .676 0 .429.429 0 0 1 0 .61l-2.112 2.173c-.085 0-.17.087-.338.087zM41.529 5c-.086 0-.258-.085-.258-.169L39.13 2.718a.404.404 0 0 1 0-.591.418.418 0 0 1 .6 0l2.142 2.112a.404.404 0 0 1 0 .592c-.171.084-.257.169-.342.169zM43.5 45c-.3 0-.5-.167-.5-.417v-4.166c0-.25.2-.417.5-.417s.5.167.5.417v4.166c0 .25-.2.417-.5.417zM39.435 42c-.261 0-.435-.174-.435-.435 0-.087.087-.26.087-.26l2.174-2.175a.42.42 0 0 1 .609 0 .42.42 0 0 1 0 .61l-2.174 2.173c0 .087-.174.087-.261.087zM48.529 42c-.086 0-.258-.085-.258-.169l-2.142-2.113a.404.404 0 0 1 0-.591.418.418 0 0 1 .6 0l2.142 2.112a.404.404 0 0 1 0 .592c-.085.084-.171.169-.342.169z"/>
    </g>
</svg>
