<svg xmlns="http://www.w3.org/2000/svg" width="64" height="41" viewBox="0 0 64 41">
    <g fill="none" fill-rule="evenodd">
        <path d="M59.07 11.46h-1.54a2.68 2.68 0 0 1-2.68-2.68V3.25c0-.74-.6-1.34-1.34-1.34H4.79a2.88 2.88 0 0 0-2.88 2.88v30.65a2.88 2.88 0 0 0 2.88 2.88H52a2.88 2.88 0 0 0 2.88-2.88v-4c0-1.48 1.2-2.68 2.68-2.68h.39a4 4 0 0 0 4-4V14.34a2.88 2.88 0 0 0-2.88-2.88zM16.28 30.24a1.83 1.83 0 0 1-3.65 0V10a1.83 1.83 0 1 1 3.65 0v20.24zm9.42 0a1.83 1.83 0 0 1-3.65 0V10a1.83 1.83 0 0 1 3.65 0v20.24zm9.3 0a1.83 1.83 0 0 1-3.65 0V10A1.83 1.83 0 0 1 35 10v20.24zm9.3 0a1.83 1.83 0 0 1-3.65 0V10a1.83 1.83 0 0 1 3.65 0v20.24z"/>
        <path fill="#FFF" fill-rule="nonzero" d="M58.68 9.16h-.58c-.85 0-1.15-.69-1.15-1.54V4a4 4 0 0 0-4-4H4.79C1.72 0 0 2.49 0 5.56v30.65a4 4 0 0 0 4 4h48.36c3.07 0 4.6-3.06 4.6-6.13v-1.67c0-.85.3-1.54 1.15-1.54A6.06 6.06 0 0 0 64 25.13v-10c0-3.13-2.25-5.97-5.32-5.97zm3.26 15.59a4 4 0 0 1-4 4h-.39a2.68 2.68 0 0 0-2.68 2.68v4A2.88 2.88 0 0 1 52 38.32H4.79a2.88 2.88 0 0 1-2.88-2.88V4.79a2.88 2.88 0 0 1 2.88-2.88h48.72c.74 0 1.34.6 1.34 1.34v5.53c0 1.48 1.2 2.68 2.68 2.68h1.54a2.88 2.88 0 0 1 2.88 2.88l-.01 10.41z"/>
        <path fill="#FFF" fill-rule="nonzero" d="M14.45 8.17c-1.01 0-1.83.82-1.83 1.83v20.24a1.83 1.83 0 0 0 3.65 0V10a1.83 1.83 0 0 0-1.82-1.83zM23.87 8.17A1.83 1.83 0 0 0 22 10v20.24a1.83 1.83 0 0 0 3.65 0V10a1.83 1.83 0 0 0-1.78-1.83zM33.17 8.17c-1.01 0-1.83.82-1.83 1.83v20.24a1.83 1.83 0 0 0 3.65 0V10a1.83 1.83 0 0 0-1.82-1.83zM42.46 8.17A1.83 1.83 0 0 0 40.64 10v20.24a1.83 1.83 0 0 0 3.65 0V10c0-1.01-.82-1.83-1.83-1.83z"/>
    </g>
</svg>
