<svg xmlns="http://www.w3.org/2000/svg" width="47" height="53" viewBox="0 0 47 53">
    <g fill="#FFF" fill-rule="nonzero">
        <path d="M47 26.652c.007-6.902-2.954-13.462-8.108-17.958-2.39-2.195-5.892 1.363-3.596 3.124 5.518 4.46 8.088 11.7 6.643 18.71-1.445 7.012-6.659 12.596-13.475 14.433l.013-2.893c0-1.309-.888-1.82-1.982-1.143l-7.669 4.714c-1.102.677-1.1 1.772 0 2.446l7.597 4.621c1.105.67 2.008.155 2.014-1.154v-1.69C39.25 47.56 46.997 37.874 47 26.651zM11.639 41.651C6.15 37.115 3.61 29.783 5.073 22.695 6.534 15.607 11.748 9.97 18.553 8.12l.012 2.95c0 1.326.904 1.85 2.01 1.167l7.595-4.682c1.105-.68 1.108-1.792 0-2.477L20.512.303C19.41-.383 18.52.135 18.53 1.463v1.705C9.89 5.038 3.016 11.768.77 20.558c-2.247 8.79.518 18.133 7.145 24.139 3.753 3.6 6.085-1.205 3.725-3.046z"/>
    </g>
</svg>
