<svg xmlns="http://www.w3.org/2000/svg" width="60" height="42" viewBox="0 0 60 42">
    <g fill="none" fill-rule="evenodd">
        <path d="M57.331 2H2.67A.666.666 0 0 0 2 2.664v36.672c0 .367.3.664.669.664H57.33c.178 0 .348-.07.473-.194a.661.661 0 0 0 .196-.47V2.664a.661.661 0 0 0-.196-.47.671.671 0 0 0-.473-.194zM5.133 7.545l2.64-2.62a1.013 1.013 0 0 1 1.686.448.995.995 0 0 1-.261.967l-2.64 2.62c-.394.39-1.032.39-1.425 0a.995.995 0 0 1 0-1.415zm2.13 6.05a1.246 1.246 0 0 1-1.76 0 1.226 1.226 0 0 1 0-1.746l6.66-6.575a1.251 1.251 0 0 1 1.202-.32c.43.115.765.448.88.874.115.426-.007.88-.322 1.193l-6.66 6.575zM22.22 28.17H13.96V16.294h3.247v9.369h4.989l.026 2.506zm10.815 0H23.48V16.294h9.38V18.8H26.7v2.104h5.28v2.375H26.7v2.392h6.283l.053 2.498zm7.04 0H34.62V16.294h5.438c3.854 0 5.799 2.34 5.799 5.937 0 3.598-1.945 5.938-5.808 5.938h.026z"/>
        <path d="M39.947 19H38v6h1.947C42.16 25 43 23.865 43 22s-.841-3-3.053-3z"/>
        <path fill="#FFF" fill-rule="nonzero" d="M17.154 16H14v12h8v-2.532h-4.846zM26.401 23.05h5.536v-2.4h-5.536v-2.118h6.442V16H23v12h10v-2.532h-6.599zM40.315 16H35v12h5.323C44.096 28 46 25.635 46 22s-1.904-6-5.685-6zm-.37 9.265H38.17v-6.53h1.774c2.016 0 2.783 1.236 2.783 3.265 0 2.03-.767 3.265-2.783 3.265z"/>
        <path fill="#FFF" fill-rule="nonzero" d="M57.26 0H2.74C1.228 0 0 1.21 0 2.701V39.3C0 40.79 1.227 42 2.74 42h54.52c1.513 0 2.74-1.21 2.74-2.701V2.7C60 1.21 58.773 0 57.26 0zm.884 39.316c0 .366-.301.662-.672.662H2.546a.667.667 0 0 1-.672-.662V2.72c0-.366.301-.663.672-.663h54.917c.178 0 .349.07.475.194a.657.657 0 0 1 .197.469l.009 36.597z"/>
        <path fill="#FFF" fill-rule="nonzero" d="M13.63 5.36a1.224 1.224 0 0 0-1.735 0L5.36 11.907a1.222 1.222 0 0 0 0 1.733 1.224 1.224 0 0 0 1.735 0l6.552-6.545a1.222 1.222 0 0 0-.018-1.733zM6.81 9.72l2.85-2.848A1.084 1.084 0 1 0 8.17 5.297l-2.85 2.847a1.087 1.087 0 1 0 1.539 1.538l-.048.038z"/>
    </g>
</svg>
