<svg xmlns="http://www.w3.org/2000/svg" width="34" height="60" viewBox="0 0 34 60">
    <g fill="none" fill-rule="evenodd">
        <path d="M21 42l-4-13-4 13zM12.115 45L10 52h14l-2.115-7z"/>
        <path fill="#FFF" fill-rule="nonzero" d="M6.34 24.999c.66.027 1.268-.338 1.53-.917a1.472 1.472 0 0 0-.353-1.693c-5.7-5.461-5.7-14.3 0-19.761A1.497 1.497 0 0 0 7.498.443a1.67 1.67 0 0 0-2.285.018c-6.95 6.654-6.95 17.429 0 24.083.297.289.703.453 1.127.455zM30.838 12.438c.012 3.696-1.517 7.242-4.247 9.848-.473.367-.687.961-.55 1.53.136.57.6 1.014 1.192 1.145a1.627 1.627 0 0 0 1.594-.528c6.897-6.625 6.897-17.364 0-23.989a1.628 1.628 0 0 0-2.236 0 1.475 1.475 0 0 0 0 2.147c2.73 2.606 4.26 6.152 4.247 9.847z"/>
        <path fill="#FFF" fill-rule="nonzero" d="M9.346 20.547a1.56 1.56 0 0 0 2.199 0 1.54 1.54 0 0 0 0-2.186 8.264 8.264 0 0 1 0-11.722c.392-.39.546-.96.402-1.493a1.55 1.55 0 0 0-1.1-1.093 1.56 1.56 0 0 0-1.5.4 11.35 11.35 0 0 0 0 16.094zM22.456 20.546a1.553 1.553 0 0 0 2.196 0 11.344 11.344 0 0 0 0-16.093 1.558 1.558 0 0 0-2.196 0 1.541 1.541 0 0 0 0 2.186 8.265 8.265 0 0 1 2.44 5.86 8.265 8.265 0 0 1-2.44 5.86 1.539 1.539 0 0 0 0 2.187z"/>
        <circle cx="17" cy="13" r="3" fill="#FFF" fill-rule="nonzero"/>
        <path fill="#FFF" fill-rule="nonzero" d="M18.414 22.971a1.411 1.411 0 0 0-.97-.94 1.835 1.835 0 0 0-.675 0 1.411 1.411 0 0 0-.97.94L5.035 58.243a1.44 1.44 0 0 0 .981 1.695 1.43 1.43 0 0 0 1.752-.862l1.372-4.568h15.732l1.36 4.568a1.43 1.43 0 0 0 1.752.862 1.44 1.44 0 0 0 .98-1.695l-10.55-35.272zm-1.408 5.294l4.033 13.442h-8.055l4.022-13.442zm-7.003 23.364l2.106-7.043h9.782l2.106 7.043H10.003z"/>
    </g>
</svg>
