<svg xmlns="http://www.w3.org/2000/svg" width="21" height="21" viewBox="0 0 21 21">
    <path fill="#020203" fill-rule="evenodd" d="M17.064 0c1.085 0 2.012.385 2.782 1.158.77.77 1.154 1.697 1.154 2.778V17.06c0 1.084-.385 2.015-1.154 2.785-.77.77-1.697 1.154-2.782 1.154h-2.57v-8.133h2.72l.41-3.173h-3.13V7.672c0-.511.108-.896.318-1.151.216-.252.633-.382 1.255-.382l1.666-.014v-2.83c-.574-.084-1.386-.122-2.435-.122-1.235 0-2.232.364-2.97 1.091-.745.732-1.116 1.76-1.116 3.093v2.337H8.476v3.173h2.736V21H3.939c-1.084 0-2.011-.385-2.785-1.154C.384 19.076 0 18.146 0 17.06V3.936c0-1.081.385-2.008 1.154-2.778C1.928.385 2.854 0 3.94 0h13.125z"/>
</svg>
