<svg xmlns="http://www.w3.org/2000/svg" width="21" height="21" viewBox="0 0 21 21">
    <path fill="#020203" fill-rule="evenodd" d="M11.207 0c1.706.004 2.915.026 3.625.069 1.896.087 3.362.654 4.4 1.693 1.04 1.04 1.606 2.508 1.697 4.404.043.754.067 2.079.07 3.97v.361c0 2.089-.024 3.533-.07 4.335-.09 1.896-.657 3.365-1.696 4.404-1.04 1.039-2.505 1.602-4.401 1.693-.805.046-2.25.07-4.335.07-2.088 0-3.533-.024-4.334-.07-1.896-.09-3.365-.654-4.404-1.693C.723 18.196.157 16.728.066 14.832.02 14.078 0 12.753-.001 10.859v-.362c0-2.085.018-3.53.067-4.33C.156 4.27.723 2.8 1.759 1.761 2.798.723 4.267.156 6.163.07 6.87.026 8.078.004 9.787-.001h1.42zM8.01 1.878c-.329.007-.77.017-1.319.042-.556.024-1.021.066-1.413.136-.385.066-.71.154-.976.252-.455.182-.857.448-1.203.794-.343.346-.613.749-.791 1.203-.101.266-.185.588-.255.976-.067.389-.112.857-.137 1.41-.02.55-.035.99-.038 1.319-.004.329-.004.808 0 1.441l.006.974v.146l-.006.972c-.004.633-.004 1.116 0 1.445.003.329.017.766.038 1.319.025.553.07 1.021.137 1.406.07.388.154.714.255.976.178.458.448.86.79 1.207.347.346.75.609 1.204.79.266.102.591.186.976.256.392.066.857.112 1.413.136.55.021.99.035 1.32.039.324.007.807.007 1.44 0l.91-.006h.27l.909.006c.637.007 1.116.007 1.445 0 .328-.004.766-.018 1.319-.039.552-.024 1.017-.07 1.41-.136.384-.07.713-.154.975-.255.455-.182.857-.445 1.204-.79.346-.347.612-.75.79-1.208.105-.262.186-.588.256-.976.066-.385.115-.853.136-1.406.025-.553.035-.99.039-1.319.007-.329.007-.812 0-1.445l-.007-1.017v-.029l.007-1.046c.007-.633.007-1.112 0-1.441-.004-.329-.014-.77-.039-1.319-.02-.553-.07-1.021-.136-1.41-.07-.388-.15-.71-.256-.976-.178-.454-.444-.857-.79-1.203-.347-.346-.749-.612-1.204-.794-.262-.098-.59-.186-.976-.252-.392-.07-.857-.112-1.41-.136-.552-.025-.99-.035-1.318-.042-.33-.004-.808-.004-1.445 0-.378.004-.655.005-.83.006h-.428c-.176 0-.453-.002-.83-.006-.634-.004-1.117-.004-1.442 0zm2.487 3.232c1.494 0 2.768.525 3.813 1.574 1.046 1.05 1.575 2.32 1.575 3.813 0 1.498-.529 2.767-1.575 3.817-1.045 1.05-2.319 1.57-3.813 1.57-1.493 0-2.767-.52-3.813-1.57-1.05-1.05-1.574-2.32-1.574-3.817 0-1.493.525-2.763 1.574-3.813 1.046-1.05 2.32-1.574 3.813-1.574zm0 1.889c-.969 0-1.79.343-2.473 1.025C7.338 8.706 7 9.532 7 10.497c0 .966.34 1.791 1.025 2.477.682.682 1.504 1.025 2.473 1.025.966 0 1.788-.343 2.477-1.025.682-.686 1.025-1.511 1.025-2.477 0-.965-.343-1.79-1.025-2.473-.689-.682-1.511-1.025-2.477-1.025zm5.605-3.362c.346 0 .643.123.888.367.245.245.367.543.367.89 0 .345-.122.64-.367.888s-.542.37-.888.37c-.347 0-.64-.122-.889-.37-.245-.249-.367-.543-.367-.889s.122-.644.367-.889c.248-.244.542-.367.889-.367z"/>
</svg>
