<?xml version="1.0" encoding="utf-8"?>
<!-- Generator: Adobe Illustrator 24.3.0, SVG Export Plug-In . SVG Version: 6.00 Build 0)  -->
<svg version="1.1" id="Layer_1" xmlns="http://www.w3.org/2000/svg" xmlns:xlink="http://www.w3.org/1999/xlink" width="21" x="0px" y="0px"
	 viewBox="0 0 50 41.1" style="enable-background:new 0 0 50 41.1;" xml:space="preserve">
<style type="text/css">
	.st0{fill:#010202;}
</style>
<g>
	<path class="st0" d="M43.81,6.86c1.94-0.21,3.88-0.73,5.81-1.56c-1.4,2.04-3.08,3.78-5.06,5.22c0.02,0.29,0.03,0.73,0.03,1.31
		c0,2.71-0.4,5.41-1.19,8.11c-0.79,2.7-2,5.29-3.61,7.77c-1.61,2.48-3.54,4.67-5.77,6.58c-2.23,1.91-4.92,3.43-8.06,4.56
		c-3.15,1.14-6.51,1.7-10.09,1.7c-5.65,0-10.81-1.51-15.5-4.53c0.73,0.09,1.54,0.13,2.44,0.13c4.69,0,8.87-1.44,12.53-4.31
		c-2.19-0.04-4.15-0.71-5.88-2.01c-1.73-1.3-2.92-2.96-3.56-4.98c0.69,0.11,1.32,0.16,1.91,0.16c0.9,0,1.78-0.11,2.66-0.34
		C8.13,24.17,6.2,23,4.67,21.16c-1.53-1.84-2.3-3.98-2.3-6.42v-0.12c1.42,0.79,2.94,1.22,4.56,1.28c-1.38-0.92-2.47-2.11-3.28-3.59
		c-0.81-1.48-1.22-3.08-1.22-4.81c0-1.83,0.46-3.53,1.38-5.09c2.52,3.11,5.59,5.59,9.2,7.45c3.61,1.86,7.49,2.9,11.61,3.11
		c-0.17-0.79-0.25-1.56-0.25-2.31c0-2.79,0.98-5.17,2.95-7.14c1.97-1.97,4.35-2.95,7.14-2.95c2.92,0,5.38,1.06,7.38,3.19
		c2.27-0.44,4.41-1.25,6.41-2.44C47.48,3.69,46,5.55,43.81,6.86L43.81,6.86z"/>
</g>
</svg>
