<svg xmlns="http://www.w3.org/2000/svg" xmlns:xlink="http://www.w3.org/1999/xlink" width="21" height="21" viewBox="0 0 21 21">
    <defs>
        <path id="52741n8tja" d="M0 0L21 0 21 21 0 21z"/>
    </defs>
    <g fill="none" fill-rule="evenodd">
        <mask id="xxw5h763ab" fill="#fff">
            <use xlink:href="#52741n8tja"/>
        </mask>
        <path fill="#000" d="M14.574 13.041c2.004-2.578 3.036-4.6 3.089-6.069.09-1.97-.64-2.98-2.2-3.036-2.107-.07-3.527 1.119-4.265 3.568.399-.172.773-.26 1.12-.26.776 0 1.112.438 1.014 1.316-.039.518-.374 1.277-1.015 2.281-.636 1.004-1.116 1.504-1.434 1.504-.392 0-.766-.77-1.12-2.309-.122-.493-.325-1.654-.615-3.487-.273-1.725-1.004-2.53-2.19-2.421-.539.066-1.284.521-2.242 1.368l-1.106.983c-.493.44-.86.766-1.109.986l.71.917c.693-.476 1.088-.714 1.19-.714.521 0 1.007.819 1.466 2.449.136.504.339 1.249.615 2.25.273.996.476 1.748.612 2.249.623 1.63 1.368 2.445 2.243 2.445 1.43 0 3.176-1.336 5.237-4.02M21 3.936V17.06c0 1.084-.385 2.015-1.154 2.781-.77.773-1.7 1.158-2.785 1.158H3.936c-1.085 0-2.012-.385-2.782-1.158C.384 19.076 0 18.145 0 17.061V3.936C0 2.85.385 1.924 1.154 1.154 1.924.384 2.851 0 3.936 0H17.06c1.084 0 2.015.385 2.785 1.154.77.77 1.154 1.697 1.154 2.782" mask="url(#xxw5h763ab)"/>
    </g>
</svg>
